<svg width="34" height="41" viewBox="0 0 34 41" fill="none" xmlns="http://www.w3.org/2000/svg">
<path d="M34 9.97173C31.4347 21.3683 25.9537 31.8961 18.0979 40.5159C17.9582 40.6685 17.7885 40.7903 17.5996 40.8737C17.4106 40.957 17.2064 41 17 41C16.7936 41 16.5894 40.957 16.4005 40.8737C16.2115 40.7903 16.0418 40.6685 15.9021 40.5159C15.5927 40.1791 15.3354 39.8946 15.1322 39.6644C7.6825 31.2013 2.47804 20.9891 4.57095e-07 9.97173C3.9909 9.12764 8.08991 8.57366 12.2728 8.33597L16.1668 0.516492C16.2443 0.361261 16.3632 0.230741 16.5104 0.139525C16.6575 0.04831 16.8271 1.20877e-06 17 1.20877e-06C17.1729 1.20877e-06 17.3425 0.04831 17.4896 0.139525C17.6368 0.230741 17.7557 0.361261 17.8332 0.516492L21.7272 8.33597C25.8533 8.57012 29.9559 9.11693 34 9.97173V9.97173ZM21.5147 12.0735L19.358 11.95L17 7.21489L14.642 11.95L12.4853 12.0735C9.84632 12.2235 7.21655 12.507 4.60603 12.9232C7.07917 21.4354 11.3012 29.3328 17 36.1065C22.6988 29.3328 26.9208 21.4354 29.394 12.9232C26.7936 12.5077 24.1654 12.2232 21.5147 12.0735V12.0735ZM17 15.6875C18.4831 15.6875 19.9055 16.2791 20.9542 17.3321C22.0029 18.385 22.5921 19.8132 22.5921 21.3023C22.5921 22.7914 22.0029 24.2195 20.9542 25.2725C19.9055 26.3255 18.4831 26.917 17 26.917C15.5169 26.917 14.0945 26.3255 13.0458 25.2725C11.9971 24.2195 11.4079 22.7914 11.4079 21.3023C11.4079 19.8132 11.9971 18.385 13.0458 17.3321C14.0945 16.2791 15.5169 15.6875 17 15.6875ZM17 19.4307C16.5056 19.4307 16.0315 19.6279 15.6819 19.9789C15.3324 20.3299 15.136 20.8059 15.136 21.3023C15.136 21.7987 15.3324 22.2747 15.6819 22.6257C16.0315 22.9767 16.5056 23.1739 17 23.1739C17.4944 23.1739 17.9685 22.9767 18.3181 22.6257C18.6676 22.2747 18.864 21.7987 18.864 21.3023C18.864 20.8059 18.6676 20.3299 18.3181 19.9789C17.9685 19.6279 17.4944 19.4307 17 19.4307V19.4307Z" fill="white"/>
</svg>
