<svg width="21" height="20" viewBox="0 0 21 20" fill="none" xmlns="http://www.w3.org/2000/svg">
<path d="M13.968 13.656C18.555 9.58301 22.109 4.23201 20.025 1.88501C19.364 1.14101 18.441 0.79601 17.45 0.90201C16.618 0.99301 15.763 1.40401 14.901 2.09401C13.546 1.39201 12.0335 1.04931 10.5082 1.09868C8.98295 1.14806 7.49582 1.58785 6.18902 2.37601C5.17313 2.97749 4.28679 3.77471 3.58143 4.72143C2.87607 5.66815 2.36573 6.74551 2.08002 7.89101C1.63471 9.6555 1.74152 11.5141 2.38602 13.216C1.32102 14.419 0.332019 16.893 1.56302 18.279C2.08002 18.86 2.82002 19.12 3.71002 19.12C6.41702 19.12 10.518 16.721 13.968 13.656ZM17.667 2.88901C18.025 2.85501 18.299 2.95301 18.528 3.21201C18.759 3.47301 18.697 4.15801 18.276 5.14101C17.8238 4.45271 17.2797 3.8293 16.659 3.28801C17.09 3.02601 17.435 2.91501 17.667 2.88901ZM3.43602 15.192C3.88068 15.8369 4.40782 16.4209 5.00402 16.929C3.97902 17.232 3.29002 17.212 3.05902 16.95C2.84202 16.707 3.06102 15.881 3.43602 15.192ZM19.746 9.32301C18.531 11.12 16.84 12.994 14.968 14.656C13.034 16.375 10.902 17.864 8.91802 18.858C9.53364 18.9935 10.1617 19.0646 10.792 19.07C12.4183 19.0683 14.0137 18.6252 15.408 17.788C16.8565 16.9305 18.0326 15.6804 18.8003 14.1824C19.568 12.6844 19.8959 10.9996 19.746 9.32301Z" fill="black"/>
</svg>
